<mxfile host="app.diagrams.net" modified="2022-11-18T04:12:19.723Z" agent="5.0 (Windows NT 10.0; Win64; x64) AppleWebKit/537.36 (KHTML, like Gecko) Chrome/95.0.4638.54 Safari/537.36" etag="hnCzEDLZbDLEmSzMyv3h" version="20.5.3" type="github">
  <diagram id="Sr9H_8UZNTvfuwrAefG3" name="第 1 页">
    <mxGraphModel dx="1038" dy="500" grid="1" gridSize="10" guides="1" tooltips="1" connect="1" arrows="1" fold="1" page="1" pageScale="1" pageWidth="827" pageHeight="1169" math="0" shadow="0">
      <root>
        <mxCell id="0" />
        <mxCell id="1" parent="0" />
        <mxCell id="FK_nnvyfCjBOmraZTnd3-1" value="主系统" style="swimlane;fontStyle=0;childLayout=stackLayout;horizontal=1;startSize=30;horizontalStack=0;resizeParent=1;resizeParentMax=0;resizeLast=0;collapsible=1;marginBottom=0;whiteSpace=wrap;html=1;" parent="1" vertex="1">
          <mxGeometry x="189" y="240" width="190" height="180" as="geometry" />
        </mxCell>
        <mxCell id="FK_nnvyfCjBOmraZTnd3-2" value="标准文档（系统说明）" style="text;strokeColor=none;fillColor=none;align=left;verticalAlign=middle;spacingLeft=4;spacingRight=4;overflow=hidden;points=[[0,0.5],[1,0.5]];portConstraint=eastwest;rotatable=0;whiteSpace=wrap;html=1;" parent="FK_nnvyfCjBOmraZTnd3-1" vertex="1">
          <mxGeometry y="30" width="190" height="30" as="geometry" />
        </mxCell>
        <mxCell id="FK_nnvyfCjBOmraZTnd3-3" value="图谱：效率提升" style="text;strokeColor=none;fillColor=none;align=left;verticalAlign=middle;spacingLeft=4;spacingRight=4;overflow=hidden;points=[[0,0.5],[1,0.5]];portConstraint=eastwest;rotatable=0;whiteSpace=wrap;html=1;" parent="FK_nnvyfCjBOmraZTnd3-1" vertex="1">
          <mxGeometry y="60" width="190" height="30" as="geometry" />
        </mxCell>
        <mxCell id="FK_nnvyfCjBOmraZTnd3-10" value="能力：编程能力" style="text;strokeColor=none;fillColor=none;align=left;verticalAlign=middle;spacingLeft=4;spacingRight=4;overflow=hidden;points=[[0,0.5],[1,0.5]];portConstraint=eastwest;rotatable=0;whiteSpace=wrap;html=1;" parent="FK_nnvyfCjBOmraZTnd3-1" vertex="1">
          <mxGeometry y="90" width="190" height="30" as="geometry" />
        </mxCell>
        <mxCell id="FK_nnvyfCjBOmraZTnd3-23" value="项目：新品分析平台" style="text;strokeColor=none;fillColor=none;align=left;verticalAlign=middle;spacingLeft=4;spacingRight=4;overflow=hidden;points=[[0,0.5],[1,0.5]];portConstraint=eastwest;rotatable=0;whiteSpace=wrap;html=1;" parent="FK_nnvyfCjBOmraZTnd3-1" vertex="1">
          <mxGeometry y="120" width="190" height="30" as="geometry" />
        </mxCell>
        <mxCell id="FK_nnvyfCjBOmraZTnd3-29" value="..." style="text;strokeColor=none;fillColor=none;align=left;verticalAlign=middle;spacingLeft=4;spacingRight=4;overflow=hidden;points=[[0,0.5],[1,0.5]];portConstraint=eastwest;rotatable=0;whiteSpace=wrap;html=1;" parent="FK_nnvyfCjBOmraZTnd3-1" vertex="1">
          <mxGeometry y="150" width="190" height="30" as="geometry" />
        </mxCell>
        <mxCell id="FK_nnvyfCjBOmraZTnd3-5" value="溯源系统" style="swimlane;fontStyle=0;childLayout=stackLayout;horizontal=1;startSize=30;horizontalStack=0;resizeParent=1;resizeParentMax=0;resizeLast=0;collapsible=1;marginBottom=0;whiteSpace=wrap;html=1;" parent="1" vertex="1">
          <mxGeometry x="189" y="40" width="190" height="180" as="geometry" />
        </mxCell>
        <mxCell id="FK_nnvyfCjBOmraZTnd3-6" value="标准文档（系统说明）" style="text;strokeColor=none;fillColor=none;align=left;verticalAlign=middle;spacingLeft=4;spacingRight=4;overflow=hidden;points=[[0,0.5],[1,0.5]];portConstraint=eastwest;rotatable=0;whiteSpace=wrap;html=1;" parent="FK_nnvyfCjBOmraZTnd3-5" vertex="1">
          <mxGeometry y="30" width="190" height="30" as="geometry" />
        </mxCell>
        <mxCell id="FK_nnvyfCjBOmraZTnd3-31" value="笔记：《康奈尔笔记》(2022)" style="text;strokeColor=none;fillColor=none;align=left;verticalAlign=middle;spacingLeft=4;spacingRight=4;overflow=hidden;points=[[0,0.5],[1,0.5]];portConstraint=eastwest;rotatable=0;whiteSpace=wrap;html=1;" parent="FK_nnvyfCjBOmraZTnd3-5" vertex="1">
          <mxGeometry y="60" width="190" height="30" as="geometry" />
        </mxCell>
        <mxCell id="FK_nnvyfCjBOmraZTnd3-32" value="剪藏：产品经理知识图谱" style="text;strokeColor=none;fillColor=none;align=left;verticalAlign=middle;spacingLeft=4;spacingRight=4;overflow=hidden;points=[[0,0.5],[1,0.5]];portConstraint=eastwest;rotatable=0;whiteSpace=wrap;html=1;" parent="FK_nnvyfCjBOmraZTnd3-5" vertex="1">
          <mxGeometry y="90" width="190" height="30" as="geometry" />
        </mxCell>
        <mxCell id="FK_nnvyfCjBOmraZTnd3-33" value="临时：控温算法设计草图" style="text;strokeColor=none;fillColor=none;align=left;verticalAlign=middle;spacingLeft=4;spacingRight=4;overflow=hidden;points=[[0,0.5],[1,0.5]];portConstraint=eastwest;rotatable=0;whiteSpace=wrap;html=1;" parent="FK_nnvyfCjBOmraZTnd3-5" vertex="1">
          <mxGeometry y="120" width="190" height="30" as="geometry" />
        </mxCell>
        <mxCell id="FK_nnvyfCjBOmraZTnd3-7" value="..." style="text;strokeColor=none;fillColor=none;align=left;verticalAlign=middle;spacingLeft=4;spacingRight=4;overflow=hidden;points=[[0,0.5],[1,0.5]];portConstraint=eastwest;rotatable=0;whiteSpace=wrap;html=1;" parent="FK_nnvyfCjBOmraZTnd3-5" vertex="1">
          <mxGeometry y="150" width="190" height="30" as="geometry" />
        </mxCell>
        <mxCell id="FK_nnvyfCjBOmraZTnd3-9" value="&lt;h1&gt;内容&lt;/h1&gt;&lt;p&gt;1）精炼知识图谱&lt;/p&gt;&lt;p&gt;2）项目成果总结&lt;/p&gt;&lt;p&gt;3）新能力建设&lt;/p&gt;" style="text;html=1;strokeColor=none;fillColor=none;spacing=5;spacingTop=-20;whiteSpace=wrap;overflow=hidden;rounded=0;" parent="1" vertex="1">
          <mxGeometry x="40" y="270" width="140" height="120" as="geometry" />
        </mxCell>
        <mxCell id="FK_nnvyfCjBOmraZTnd3-30" value="&lt;h1&gt;溯源&lt;/h1&gt;&lt;p&gt;1）读书笔记&lt;/p&gt;&lt;p&gt;2）网页剪藏&lt;/p&gt;&lt;p&gt;3）临时文件&lt;/p&gt;" style="text;html=1;strokeColor=none;fillColor=none;spacing=5;spacingTop=-20;whiteSpace=wrap;overflow=hidden;rounded=0;" parent="1" vertex="1">
          <mxGeometry x="40" y="70" width="140" height="120" as="geometry" />
        </mxCell>
        <mxCell id="FK_nnvyfCjBOmraZTnd3-34" value="编程能力" style="swimlane;fontStyle=0;childLayout=stackLayout;horizontal=1;startSize=30;horizontalStack=0;resizeParent=1;resizeParentMax=0;resizeLast=0;collapsible=1;marginBottom=0;whiteSpace=wrap;html=1;" parent="1" vertex="1">
          <mxGeometry x="450" y="210" width="140" height="180" as="geometry" />
        </mxCell>
        <mxCell id="FK_nnvyfCjBOmraZTnd3-35" value="标准文档（系统说明）" style="text;strokeColor=none;fillColor=none;align=left;verticalAlign=middle;spacingLeft=4;spacingRight=4;overflow=hidden;points=[[0,0.5],[1,0.5]];portConstraint=eastwest;rotatable=0;whiteSpace=wrap;html=1;" parent="FK_nnvyfCjBOmraZTnd3-34" vertex="1">
          <mxGeometry y="30" width="140" height="30" as="geometry" />
        </mxCell>
        <mxCell id="FK_nnvyfCjBOmraZTnd3-36" value="Python: 原生库" style="text;strokeColor=none;fillColor=none;align=left;verticalAlign=middle;spacingLeft=4;spacingRight=4;overflow=hidden;points=[[0,0.5],[1,0.5]];portConstraint=eastwest;rotatable=0;whiteSpace=wrap;html=1;" parent="FK_nnvyfCjBOmraZTnd3-34" vertex="1">
          <mxGeometry y="60" width="140" height="30" as="geometry" />
        </mxCell>
        <mxCell id="rLlV0931TspbQ55umflz-1" value="Python: EasyUi" style="text;strokeColor=none;fillColor=none;align=left;verticalAlign=middle;spacingLeft=4;spacingRight=4;overflow=hidden;points=[[0,0.5],[1,0.5]];portConstraint=eastwest;rotatable=0;whiteSpace=wrap;html=1;" vertex="1" parent="FK_nnvyfCjBOmraZTnd3-34">
          <mxGeometry y="90" width="140" height="30" as="geometry" />
        </mxCell>
        <mxCell id="rLlV0931TspbQ55umflz-2" value="Java: 语法" style="text;strokeColor=none;fillColor=none;align=left;verticalAlign=middle;spacingLeft=4;spacingRight=4;overflow=hidden;points=[[0,0.5],[1,0.5]];portConstraint=eastwest;rotatable=0;whiteSpace=wrap;html=1;" vertex="1" parent="FK_nnvyfCjBOmraZTnd3-34">
          <mxGeometry y="120" width="140" height="30" as="geometry" />
        </mxCell>
        <mxCell id="FK_nnvyfCjBOmraZTnd3-37" value="..." style="text;strokeColor=none;fillColor=none;align=left;verticalAlign=middle;spacingLeft=4;spacingRight=4;overflow=hidden;points=[[0,0.5],[1,0.5]];portConstraint=eastwest;rotatable=0;whiteSpace=wrap;html=1;" parent="FK_nnvyfCjBOmraZTnd3-34" vertex="1">
          <mxGeometry y="150" width="140" height="30" as="geometry" />
        </mxCell>
        <mxCell id="FK_nnvyfCjBOmraZTnd3-38" style="edgeStyle=orthogonalEdgeStyle;rounded=0;orthogonalLoop=1;jettySize=auto;html=1;entryX=-0.029;entryY=0.127;entryDx=0;entryDy=0;entryPerimeter=0;" parent="1" source="FK_nnvyfCjBOmraZTnd3-10" target="FK_nnvyfCjBOmraZTnd3-34" edge="1">
          <mxGeometry relative="1" as="geometry" />
        </mxCell>
        <mxCell id="FK_nnvyfCjBOmraZTnd3-40" value="" style="shape=internalStorage;whiteSpace=wrap;html=1;backgroundOutline=1;" parent="1" vertex="1">
          <mxGeometry x="660" y="210" width="130" height="120" as="geometry" />
        </mxCell>
        <mxCell id="FK_nnvyfCjBOmraZTnd3-41" style="edgeStyle=orthogonalEdgeStyle;rounded=0;orthogonalLoop=1;jettySize=auto;html=1;entryX=-0.009;entryY=0.09;entryDx=0;entryDy=0;entryPerimeter=0;" parent="1" source="FK_nnvyfCjBOmraZTnd3-36" target="FK_nnvyfCjBOmraZTnd3-40" edge="1">
          <mxGeometry relative="1" as="geometry" />
        </mxCell>
        <mxCell id="rLlV0931TspbQ55umflz-3" value="&lt;h1&gt;助记&lt;/h1&gt;&lt;p&gt;1）标题跳转方式&lt;/p&gt;&lt;p&gt;2）标准文档大纲&lt;/p&gt;" style="text;html=1;strokeColor=none;fillColor=none;spacing=5;spacingTop=-20;whiteSpace=wrap;overflow=hidden;rounded=0;" vertex="1" parent="1">
          <mxGeometry x="460" y="50" width="140" height="120" as="geometry" />
        </mxCell>
        <mxCell id="rLlV0931TspbQ55umflz-4" value="&lt;h1&gt;总结&lt;/h1&gt;&lt;p&gt;1）二分栏&lt;/p&gt;&lt;p&gt;2）超链接跳转&lt;/p&gt;" style="text;html=1;strokeColor=none;fillColor=none;spacing=5;spacingTop=-20;whiteSpace=wrap;overflow=hidden;rounded=0;" vertex="1" parent="1">
          <mxGeometry x="660" y="50" width="140" height="120" as="geometry" />
        </mxCell>
        <mxCell id="rLlV0931TspbQ55umflz-5" value="" style="endArrow=none;dashed=1;html=1;dashPattern=1 3;strokeWidth=2;rounded=0;entryX=0.5;entryY=0;entryDx=0;entryDy=0;" edge="1" parent="1" source="FK_nnvyfCjBOmraZTnd3-40" target="FK_nnvyfCjBOmraZTnd3-5">
          <mxGeometry width="50" height="50" relative="1" as="geometry">
            <mxPoint x="800" y="250" as="sourcePoint" />
            <mxPoint x="840" y="180" as="targetPoint" />
            <Array as="points">
              <mxPoint x="800" y="270" />
              <mxPoint x="800" y="10" />
              <mxPoint x="284" y="10" />
            </Array>
          </mxGeometry>
        </mxCell>
      </root>
    </mxGraphModel>
  </diagram>
</mxfile>
